<?xml version="1.0" encoding="utf-8"?>
<!-- Generator: Adobe Illustrator 21.1.0, SVG Export Plug-In . SVG Version: 6.00 Build 0)  -->
<svg version="1.1" id="Calque_1" xmlns="http://www.w3.org/2000/svg" xmlns:xlink="http://www.w3.org/1999/xlink" x="0px" y="0px"
	 viewBox="0 0 432 432" style="enable-background:new 0 0 432 432;" xml:space="preserve">
<style type="text/css">
	.st0{fill:#343434;}
	.st1{fill:#687FA1;}
	.st2{fill:#D1A569;}
	.st3{fill:#6ABCD9;}
	.st4{fill:#DEA641;}
	.st5{fill:#EBC27F;}
	.st6{fill:#020203;}
	.st7{fill:#D2B461;}
	.st8{fill:#99A568;}
	.st9{fill:#92AA3C;}
	.st10{fill:#EBC383;}
	.st11{fill:#5F9994;}
	.st12{fill:#1B1B1B;}
	.st13{fill:#B4B4B4;}
	.st14{fill:#EEC785;}
	.st15{fill:#C59796;}
	.st16{fill:#C79D8F;}
	.st17{fill:#BDAEA3;}
	.st18{fill:#95C6D3;}
	.st19{fill:#527E8A;}
	.st20{fill:#847A77;}
	.st21{fill:#C6B6B2;}
	.st22{fill:#C69168;}
	.st23{fill:#B88D7E;}
	.st24{fill:#D8A290;}
	.st25{fill:#DDAB5B;}
	.st26{fill:#8FC9D7;}
	.st27{fill:#746458;}
	.st28{fill:#6CAFC1;}
	.st29{fill:#945D62;}
	.st30{fill:#544842;}
	.st31{fill:#AF9785;}
	.st32{fill:#AF7967;}
	.st33{fill:#809CAF;}
	.st34{fill:#9A6554;}
	.st35{fill:#57876E;}
	.st36{fill:#998675;}
	.st37{fill:#A47060;}
	.st38{fill:#769EA9;}
	.st39{fill:#CE9E52;}
	.st40{fill:#DA8469;}
	.st41{fill:#6F93AD;}
	.st42{fill:#C46F58;}
	.st43{fill:#C1292E;}
	.st44{fill:#C69C6C;}
	.st45{fill:#BBCC53;}
	.st46{fill:#A67D52;}
	.st47{fill:#BE1622;}
	.st48{fill:#006633;}
	.st49{fill:#634E42;}
	.st50{fill:#135B2C;}
	.st51{fill:#1D71B8;}
	.st52{fill:#95C11F;}
	.st53{fill:#DADADA;}
	.st54{fill:#3C3C3B;}
	.st55{fill:#008D36;}
	.st56{fill:#F3B200;}
	.st57{fill:#DD7472;}
	.st58{fill:#00A19A;}
	.st59{fill:#29235C;}
	.st60{fill:#8799C0;}
	.st61{fill:#F8AE4C;}
	.st62{fill:#A4529B;}
	.st63{fill:#5C74B5;}
	.st64{fill:#9465A1;}
	.st65{fill:#72457D;}
	.st66{fill:#B1DDE2;}
	.st67{fill:#C99DC6;}
	.st68{fill:#E71D73;}
	.st69{fill:#BC177D;}
	.st70{fill:#E94E1B;}
	.st71{fill:#FEC800;}
	.st72{fill:#23234F;}
	.st73{fill:#94191D;}
	.st74{fill:#9D9D9C;}
	.st75{fill:#033B23;}
	.st76{fill:#43744E;}
	.st77{fill:#132F1D;}
	.st78{fill:#68113F;}
	.st79{fill:#9C4268;}
	.st80{fill:#67431C;}
	.st81{fill:#AB6E2E;}
	.st82{fill:#7B709C;}
	.st83{fill:#59537A;}
</style>
<g>
	<g>
		<path class="st0" d="M250.7,153c-0.2,0.4-0.2,0.8-0.3,1.2c-0.8,6.6-1.9,13.1-3.2,19.7c-1.4,6.9-2.9,13.8-4.6,20.7
			c-0.6,2.3-1.2,4.6-2,6.8c-0.4,1.1-0.8,2.1-1.4,3.1c-0.8,1.3-1.9,2.3-3.5,2.7c-1.3,0.4-2.5,0.1-3.7-0.6c-0.6-0.4-1.2-0.9-1.7-1.5
			c-0.7-0.8-1.3-1.6-1.8-2.4c-1.5-2.5-3-5.1-3.9-8c-1.3-4-2.4-8.1-3.2-12.2c-0.4-2.2-0.8-4.4-1.1-6.5c0-0.1,0-0.2-0.1-0.3
			c0-0.1-0.1-0.1-0.2-0.1c-0.1,0-0.1,0.1-0.1,0.1c-0.2,1.1-0.3,2.2-0.5,3.3c-0.6,4.3-1.2,8.7-1.8,13c-0.5,3.7-0.9,7.4-1.4,11.1
			c-0.2,1.4-0.4,2.7-0.7,4.1c-0.1,0.8-0.4,1.6-0.7,2.4c-0.8,1.5-2,2.4-3.7,2.5c-1,0.1-1.8-0.3-2.5-0.9c-0.5-0.5-1-1.1-1.4-1.6
			c-0.9-1.3-1.6-2.8-2.3-4.2c-1.2-2.5-2.3-5-3-7.6c-0.6-2.2-0.9-4.5-1.2-6.8c-0.5-3.5-0.8-7-1.1-10.5c-0.3-3.6-0.3-7.3-0.3-10.9
			c0-0.9,0-1.8,0-2.7c0-0.6-0.1-0.7-0.6-0.6c-0.7,0-1.3,0.1-2,0.2c-0.2,0-0.4,0-0.6,0c-0.5,0.1-1-0.1-1.4,0.1
			c-0.4,0.3-0.3,1-0.4,1.5c-1,5.6-2,11.2-2.9,16.7c-0.8,4.8-1.4,9.6-2.1,14.4c-0.5,3.8-1,7.6-1.6,11.4c-0.2,1.4-0.4,2.7-0.8,4.1
			c-0.2,0.5-0.3,1-0.6,1.5c-0.9,1.5-2.2,2.4-4,2.4c-0.9,0-1.8-0.3-2.5-0.8c-0.6-0.5-1.2-1-1.7-1.7c-2.6-3.5-4.5-7.3-5.2-11.7
			c-1.1-6.7-1.3-13.4-1-20.1c0.1-2.3,0.3-4.6,0.5-6.8c0.4-3.7,1-7.4,1.7-11c0.5-2.6,1.2-5.1,1.5-7.7c0.2-1.3,0.4-2.6,0.5-3.9
			c0-0.2,0-0.4,0-0.6c-0.1-0.9-0.3-1.1-1.2-1.2c-1-0.1-1.9-0.2-2.9-0.2c-0.5,0-0.5,0.1-0.6,0.6c-0.1,1.1-0.1,2.2-0.2,3.4
			c-0.3,6.5-1.2,12.9-2.8,19.2c-0.9,3.4-1.9,6.8-3.4,10c-0.8,1.8-1.7,3.6-2.9,5.2c-0.9,1.2-1.8,2.4-3,3.3c-1.4,1.1-3,1.8-4.8,1.7
			c-1.3,0-2.4-0.4-3.5-1.1c-1-0.6-1.8-1.5-2.6-2.4c-1.3-1.5-2.3-3.2-3.2-5c-1.9-3.8-3.3-7.7-4.4-11.8c-0.8-3.1-1.3-6.2-1.6-9.4
			c-0.5-4.3-0.8-8.5-1-12.8c-0.2-3.7-0.3-7.5-0.4-11.3c0-2.4-0.1-4.7,0-7.1c0-0.2,0-0.4,0-0.6c0-0.3-0.2-0.4-0.5-0.3
			c-1.1,0.3-2.2,0.6-3.4,1c-1.6,0.4-3.2,0.9-4.8,1.2c-0.9,0.1-1.7,0.1-2.6-0.1c-0.4-0.1-0.8-0.3-1-0.6c-0.5-0.5-0.5-1.3,0-1.8
			c0.4-0.4,0.9-0.6,1.5-0.8c2.2-0.6,4.4-1.3,6.6-1.9c1.2-0.4,2.4-0.7,3.7-1.1c0.5-0.1,0.6-0.4,0.7-0.9c0.1-2.1,0.2-4.2,0.4-6.3
			c0.2-2.3,0.3-4.6,0.7-6.9c0.4-2.7,1.2-5.3,2.1-7.9c0-0.1,0.1-0.2,0.1-0.3c0.6-1.4,1.8-1.9,3.2-1.5c0.9,0.3,1.6,0.8,2,1.7
			c0.4,0.8,0.5,1.6,0.6,2.4c0.4,3.4,0.5,6.8,0.1,10.2c-0.2,1.9-0.3,3.9-0.4,5.8c0,0.1,0,0.3,0,0.4c0,0.2,0.1,0.3,0.3,0.2
			c0.3-0.1,0.7-0.1,1-0.2c2.8-0.9,5.7-1.5,8.5-2.1c0.6-0.1,1.3-0.2,1.9-0.1c0.6,0.1,1.1,0.3,1.5,0.7c0.6,0.6,0.6,1.4,0.1,2
			c-0.3,0.3-0.6,0.5-0.9,0.6c-0.3,0.1-0.6,0.2-1,0.3c-3.4,1-6.8,1.9-10.2,2.9c-0.3,0.1-0.5,0.1-0.8,0.2c-0.6,0.2-0.7,0.2-0.7,0.8
			c0,0.6-0.1,1.1-0.1,1.7c-0.1,5.4,0,10.7,0.2,16.1c0.1,3.5,0.4,7,0.6,10.6c0.2,3,0.6,6,1,8.9c0.2,1.5,0.3,3.1,0.5,4.6
			c0.4,3,0.8,6.1,1.6,9.1c0.5,2,1.2,3.9,2.2,5.6c0.5,0.9,1.1,1.8,1.9,2.5c1.3,1.2,1.5,1,2.6-0.1c0.7-0.8,1.3-1.6,1.9-2.5
			c1.4-2.3,2.3-4.7,3.2-7.2c1.3-3.8,2.2-7.6,2.9-11.6c0.7-3.9,1.2-7.8,1.5-11.7c0.1-1.8,0.2-3.5,0.3-5.3c0-0.6-0.1-0.6-0.6-0.8
			c-0.4-0.1-0.8-0.2-1.2-0.3c-4.9-1.5-7.8-4.8-9-9.7c-0.6-2.8-0.2-5.6,1.1-8.2c0.4-0.8,1-1.6,1.6-2.3c2-2.1,4.7-2,6.6-1
			c1.1,0.6,1.9,1.4,2.6,2.5c0.7,1,1.2,2.1,1.6,3.2c0.7,2,1.1,4,1.3,6c0.3,2,0.4,4.1,0.5,6.2c0,0.8,0,0.8,0.9,0.8c1.1,0,2.2,0,3.3,0
			c0.9,0,1.9,0.1,2.8,0.3c0.8,0.2,1.5,0.4,2.2,0.8c2.7,1.5,3.9,3.8,3.9,6.9c0,1.7-0.4,3.3-0.8,4.9c-0.7,3.3-1.5,6.6-2,9.9
			c-0.5,2.8-0.8,5.6-1,8.5c-0.2,2.1-0.2,4.1-0.3,6.2c-0.2,4.5,0,9.1,0.6,13.6c0.2,1.3,0.4,2.6,0.7,3.9c0.2,1.4,0.4,2.8,0.7,4.2
			c0.1,0.5,0.2,1,0.3,1.5c0,0.1,0.1,0.3,0.3,0.4c0.3-0.9,0.3-1.9,0.5-2.9c0.4-3.1,0.8-6.2,1.2-9.3c0.5-3.3,1-6.7,1.5-10
			c0.7-4.6,1.5-9.2,2.3-13.8c1-5.7,2.1-11.4,3.2-17c1.6-7.7,3.3-15.4,5.1-23.1c0.7-2.9,1.4-5.8,2.3-8.7c0.3-0.8,0.6-1.6,0.9-2.4
			c0.8-2.2,2.5-2.9,4.8-2.3c1.6,0.4,2.8,1.4,3.5,2.9c0.5,1.1,0.9,2.2,0.9,3.5c0.1,2.2,0.2,4.3,0.1,6.5c-0.1,3.1-0.2,6.2-0.3,9.2
			c-0.2,4-0.4,8.1-0.6,12.1c-0.2,6.2-0.4,12.4-0.2,18.6c0.1,3.6,0.3,7.2,0.7,10.8c0.4,3.6,0.9,7.2,1.6,10.8c0.2,1.3,0.4,2.6,0.6,3.9
			c0.1,0.8,0.2,1.6,0.5,2.4c0.3-0.1,0.2-0.3,0.2-0.4c0-0.2,0.1-0.4,0.1-0.6c0.2-1.7,0.5-3.5,0.7-5.2c0.4-3,0.8-6,1.3-9
			c0.4-2.8,0.8-5.6,1.2-8.5c0.6-4.2,1.3-8.3,1.9-12.5c0.4-2.6,0.9-5.2,1.7-7.7c0.1-0.4,0.1-0.7,0.1-1.1c-0.2-4.3-0.1-8.6,0.3-12.9
			c0.2-1.9,0.3-3.9,0.5-5.8c0.1-1.3,0.4-2.6,1.1-3.8c0.3-0.6,0.7-1.1,1.1-1.5c1.2-1.1,2.6-1.4,4.2-0.8c1,0.3,1.6,1,2,2
			c0.4,1.2,0.5,2.5,0.4,3.8c-0.1,1-0.2,2.1-0.3,3.1c-0.1,1.2-0.3,2.4-0.3,3.6c-0.3,4.9-0.4,9.8-0.1,14.7c0.1,2.7,0.3,5.5,0.6,8.2
			c0.8,8.2,2.1,16.3,4.7,24.1c0.5,1.6,0.9,3.2,1.4,4.9c0.4,1.3,0.8,2.7,1.3,3.9c0.1,0.2,0.1,0.4,0.4,0.5c0.2-0.3,0.3-0.7,0.4-1
			c0.9-2.9,1.5-5.9,2.2-8.9c1.3-5.7,2.5-11.4,3.7-17c1-4.8,1.9-9.6,2.6-14.5c0.4-2.4,0.7-4.9,1.1-7.3c0.1-0.4,0.2-0.9,0-1.3
			c-0.1-0.4-0.7-0.6-1-0.8c-3.5-2.6-6-6-7.6-10c-1.9-4.9-2.5-9.9-2-15.1c0.2-2.3,0.8-4.5,1.8-6.6c0.4-0.9,0.9-1.7,1.5-2.4
			c2.6-3.2,6.6-2.6,8.8-0.4c0.7,0.7,1.2,1.6,1.7,2.5c0.7,1.6,1.2,3.2,1.6,4.9c0.7,3.4,1,6.9,1.1,10.4c0.1,4.9-0.1,9.8-0.6,14.6
			c0,0.5,0.1,0.8,0.5,1c0.5,0.2,1,0.4,1.4,0.6c1.9,0.7,3.8,1.1,5.8,1.4c0.5,0.1,0.6,0,0.7-0.5c0.1-1,0.2-2.1,0.2-3.1
			c0.2-2.5,0.4-5,0.8-7.5c0.4-3.5,1-7,1.8-10.4c0.3-1.2,0.8-2.3,1.6-3.3c0.6-0.7,1.3-1.2,2.3-1.4c1.6-0.3,3.2-0.7,4.8-0.8
			c2.7-0.2,5.3-0.1,8,0.4c0.7,0.1,1.3,0.3,1.9,0.7c0.2,0.1,0.5,0.3,0.7,0.4c1.1,0.9,1,2.2-0.3,2.9c-0.4,0.2-0.9,0.4-1.4,0.4
			c-0.7,0-1.4,0.1-2.1-0.1c-1.9-0.4-3.9-0.3-5.8-0.3c-0.6,0-0.7,0.1-0.7,0.6c0,1.2-0.3,2.3-0.6,3.4c-0.6,3.2-1.2,6.4-1.5,9.7
			c-0.1,1-0.2,2-0.3,3c-0.1,0.5-0.1,1-0.1,1.5c0,0.2,0.1,0.3,0.4,0.3c0.1,0,0.3,0,0.4,0c1,0,1.9,0.2,2.9,0.4
			c0.4,0.1,0.9,0.3,1.2,0.6c0.8,0.7,0.8,1.6,0,2.3c-0.6,0.5-1.3,0.6-2.1,0.7c-0.6,0-1.3,0.1-1.9,0.1c-0.1,0-0.1,0-0.2,0
			c-1.1,0.1-1.1,0-1.1,1.2c-0.6,8.2-0.9,16.5-0.6,24.8c0.1,3.1,0.3,6.1,0.6,9.2c0.2,2.7,0.5,5.5,1,8.2c0.4,2.4,0.6,4.9,0.9,7.4
			c0.2,1.3,0.4,2.5,0.7,3.8c0.4,1.4,0.8,1.7,2.2,1.6c0.6,0,1.1-0.1,1.7-0.3c1-0.3,2.1-0.2,3.1-0.1c0.4,0,0.7,0.1,1.1,0.3
			c0.9,0.5,1.1,1.3,0.7,2.2c-0.3,0.5-0.7,0.9-1.2,1.2c-1,0.5-2.1,0.9-3.2,1c-1.8,0.1-3.7,0.1-5.5-0.2c-0.5-0.1-1-0.2-1.4-0.3
			c-1.3-0.4-2.3-1.1-3-2.2c-0.4-0.6-0.7-1.2-1-1.8c-1-2.2-1.9-4.5-2.7-6.8c-0.5-1.3-0.7-2.7-0.9-4.1c-0.6-3.9-1-7.8-1.3-11.7
			c-0.5-6.7-0.7-13.3-0.4-20c0.1-2.7,0.2-5.3,0.3-8c0-0.3,0-0.5,0-0.8c0-0.3-0.1-0.5-0.5-0.5c-0.8-0.1-1.6-0.2-2.4-0.4
			c-1.8-0.3-3.5-0.6-5.3-1.2C251,153,250.8,153,250.7,153z M246.5,144.3c0.3-0.3,0.2-0.7,0.2-1.1c0.1-0.8,0.1-1.6,0.1-2.4
			c0.3-5.3,0.2-10.6-0.8-15.9c-0.3-1.8-0.8-3.7-1.5-5.4c-0.1-0.3-0.2-0.9-0.6-0.9c-0.4,0-0.5,0.6-0.7,0.9c-0.9,1.8-1.3,3.7-1.5,5.6
			c-0.4,4.1-0.1,8.2,1.1,12.2c0.6,2.2,1.5,4.2,2.8,6.1C246,143.8,246.1,144.2,246.5,144.3z M163.4,133.8c-0.3,0.1-0.4,0.3-0.6,0.5
			c-2.4,3.4-2.5,8.5,0.2,12c0.8,1,1.7,1.8,2.9,2.3c0.3,0.1,0.6,0.2,0.9,0.3c0.2,0.1,0.4-0.1,0.4-0.3c0-0.9-0.1-1.7-0.1-2.6
			c-0.1-2.2-0.5-4.4-1-6.5c-0.3-1.3-0.7-2.7-1.3-3.9C164.3,134.9,163.9,134.3,163.4,133.8z M195.5,162.2c1.1-0.1,2-0.2,3-0.2
			c1-0.1,1-0.1,1-1.1c0.1-3.6,0.2-7.3,0.4-10.9c0.1-2.9,0.2-5.8,0.4-8.7c0-0.2,0.2-0.4-0.1-0.6C199.6,142.2,195.8,159.7,195.5,162.2
			z"/>
		<path class="st0" d="M248.7,344.8c0.3-0.3,0.3-0.6,0.3-0.9c0.2-1.9,0.3-3.7,0.5-5.6c0.3-2.8,0.7-5.7,1-8.5c0.3-2.5,0.7-4.9,1-7.4
			c0.4-2.9,0.8-5.7,1.2-8.6c0.5-3.2,0.9-6.3,1.5-9.4c0.4-2.3,0.4-4.7,0.6-7.1c0.4-4.3,0.9-8.5,2-12.7c0.1-0.4,0.2-0.9,0.4-1.3
			c1.4-3,5.2-3.1,7-1.7c1.2,1,1.6,2.2,1.3,3.7c-0.2,1-0.5,2-0.7,3.1c-0.6,2.8-1,5.7-1.3,8.6c-0.7,8.2-0.9,16.3-0.6,24.5
			c0.1,4.9,0.5,9.7,1.3,14.6c0.8,5,1.7,10.1,3,15c0.5,1.9,0.9,3.8,1.3,5.7c0.2,0.7,0.4,1.5,0.7,2.1c0.1,0.2,0.3,0.3,0.5,0.2
			c0.5-0.2,0.9-0.3,1.4-0.5c1.6-0.7,3.2-1.4,4.9-1.8c0.5-0.1,1-0.2,1.4-0.2c0.2,0,0.5,0,0.7,0.1c1.2,0.4,1.7,1.5,1,2.6
			c-0.3,0.5-0.7,0.9-1.2,1.2c-1.1,0.6-2.1,1.2-3.3,1.7c-1.1,0.4-2.2,0.9-3.3,1.4c-1.1,0.5-2.3,0.8-3.5,0.9c-2.2,0.2-3.9-0.5-5.2-2.3
			c-0.4-0.6-0.8-1.3-1.2-1.9c-1.3-2.3-2.2-4.8-2.8-7.3c-1.1-4.6-2-9.2-2.8-13.9c-0.3-1.6-0.5-3.3-0.7-4.9c0-0.3,0-0.6-0.3-0.9
			c-0.1,0.7-0.2,1.4-0.2,2c-0.2,2.1-0.4,4.3-0.5,6.4c-0.2,2.7-0.3,5.5-0.7,8.2c-0.1,0.9-0.3,1.9-0.5,2.8c-0.3,1.4-1,2.6-2.3,3.3
			c-1.6,0.9-3.2,0.9-4.8-0.1c-0.7-0.4-1.2-1-1.7-1.6c-1.8-2.1-3.2-4.5-4-7.2c-0.8-2.8-1.4-5.7-1.8-8.6c-0.8-5.8-1-11.6-0.9-17.4
			c0.1-3.1,0.4-6.2,0.8-9.3c0.4-2.9,0.9-5.9,1.3-8.8c0.2-1.3,0.3-2.7,0.5-4c0.1-0.7,0-1.3-0.1-2c-0.1-0.6-0.2-1.1-0.3-1.7
			c-0.1-0.4-0.3-0.8-0.7-1c-1-0.4-2-0.7-3-0.9c-0.2,0-0.4,0.1-0.4,0.3c-0.1,0.2-0.2,0.5-0.3,0.7c-1.7,4.2-4.3,7.9-7.7,11
			c-0.1,0.1-0.1,0.1-0.2,0.2c-0.5,0.3-0.6,0.8-0.6,1.4c0.6,5.2,0.7,10.3,0.5,15.5c-0.2,4.9-1,9.7-2.7,14.3c-0.8,2.1-1.7,4.1-2.8,6
			c-0.8,1.3-1.7,2.5-2.7,3.6c-1.2,1.1-2.5,2-4.1,2.4c-1.8,0.5-3.6,0.4-5.4-0.1c-3-1-5.4-2.9-7.2-5.5c-1.4-2-2.5-4.3-3.3-6.6
			c-1.3-3.4-2-6.9-2.5-10.5c-0.4-2.9-0.6-5.8-0.6-8.8c0-2.4,0.2-4.8,0.5-7.2c0.1-0.4-0.1-0.7-0.4-0.9c-0.5-0.3-1.1-0.7-1.5-1.1
			c-0.3-0.2-0.6-0.3-0.9-0.2c-2.1,0.3-4.2,0.6-6.3,0.7c-0.1,0-0.1,0-0.2,0c-0.3,0-0.4,0.2-0.4,0.4c0,0.7,0.1,1.4,0.1,2.1
			c0.2,4,0.3,8.1,0.2,12.2c0,1.4,0,2.8-0.1,4.2c-0.1,3.8-0.3,7.6-0.6,11.5c-0.2,2.8-0.4,5.7-0.8,8.5c-0.5,4.1-1,8.1-2,12.1
			c-0.2,0.9-0.5,1.9-0.9,2.8c-0.3,0.8-0.7,1.6-1.3,2.2c-1.9,2.5-5.1,3.4-8.1,2.3c-1.3-0.5-2.4-1.3-3.4-2.2c-2.1-2-3.9-4.4-5.1-7.1
			c-1.5-3.5-2.7-7.1-3.7-10.7c-1.2-4.5-2.1-9.1-2.7-13.7c-0.6-5-1-9.9-1.1-14.9c0-0.1,0-0.3-0.1-0.4c-0.3,0.2-0.4,0.6-0.5,1
			c-1.2,3.1-2.3,6.3-3.4,9.4c-0.9,2.5-1.8,5-2.7,7.5c-0.4,1.1-0.9,2.2-1.4,3.3c-0.3,0.7-0.7,1.4-1.2,2c-1.6,1.9-4.5,2.6-6.9,0.9
			c-0.6-0.4-1.2-1-1.6-1.5c-0.6-0.7-1-1.4-1.5-2.1c-2.4-3.7-4-7.6-4.9-11.9c-1-4.1-1.7-8.3-2.1-12.5c-0.4-3.8-0.5-7.6-0.3-11.5
			c0.2-4.9,0.8-9.8,1.9-14.6c0.2-1,0.6-1.9,1.2-2.8c1.3-1.8,3.7-2.4,5.7-1.4c1.2,0.6,1.9,1.5,1.9,2.8c0,0.9,0,1.7-0.2,2.6
			c-0.8,3.1-1.3,6.2-1.6,9.4c-0.3,3.3-0.4,6.5-0.3,9.8c0.2,6.9,1.3,13.7,3.4,20.4c0.6,1.9,1.1,3.7,1.6,5.6c0.2,0.7,0.5,1.5,0.9,2.2
			c0.3-0.1,0.4-0.4,0.5-0.6c1.1-2.4,2-4.9,2.9-7.3c2.1-6.1,4.2-12.2,6.3-18.3c0.7-1.9,1.3-3.8,1.7-5.8c0.2-0.8,0.7-1.4,1.4-1.9
			c1.8-1.2,4.7-0.9,6.3,0.5c0.6,0.5,1,1.2,1.2,2c0.3,1.2,0.4,2.4,0.4,3.7c0,2.1,0,4.3,0.1,6.4c0.1,2.4,0.1,4.9,0.2,7.3
			c0.2,3.5,0.5,7,1,10.5c0.6,4.2,1.4,8.4,2.5,12.5c0.9,3.1,1.9,6.1,3.1,9c0.4,1,0.8,1.9,1.2,2.9c0.5,1.3,1.1,2.5,1.9,3.7
			c0.3,0.5,0.7,0.9,1.1,1.2c0.1,0.1,0.3,0.1,0.4-0.1c0.2-0.4,0.4-0.8,0.6-1.2c0.5-1.4,0.8-3,1.1-4.5c0.6-3.2,0.9-6.5,1.2-9.7
			c0.5-5,0.8-10,1-14.9c0.3-5.8,0.4-11.7,0.3-17.6c0-1.7-0.1-3.4-0.2-5.1c0-0.7-0.1-0.7-0.7-0.8c-0.9-0.2-1.9-0.3-2.8-0.5
			c-5.3-1.4-9.4-4.4-12.3-9c-2.6-4.2-3.8-8.8-3.5-13.7c0.1-1.8,0.5-3.6,1.1-5.3c0.4-1.1,1-2.2,1.7-3.2c2.1-2.9,5.4-3.5,8.3-2.5
			c1.3,0.4,2.5,1.2,3.5,2.2c1.2,1.1,2.1,2.4,2.9,3.8c1.3,2.3,2.3,4.8,3.1,7.3c1.2,3.9,2.1,7.9,2.7,11.9c0.2,1.5,0.4,3,0.6,4.5
			c0.1,0.5,0.1,0.5,0.7,0.5c1.4,0,2.7-0.2,4-0.3c0.1-0.3,0-0.5-0.1-0.7c-3.2-6.5-0.8-14.3,4.1-18.7c2.1-1.9,4.6-3,7.4-3.4
			c6.8-1,12.5,1.3,17.1,6.3c2.8,3,4.6,6.6,5.8,10.6c0.2,0.6,0.3,1.2,0.5,1.8c0.1,0.2,0.1,0.4,0.3,0.6c0.2,0,0.3-0.2,0.4-0.3
			c1.9-2.3,3.3-4.9,4.3-7.7c0.2-0.5,0.1-0.6-0.3-0.8c-0.3-0.1-0.6-0.2-0.9-0.3c-1.5-0.5-3-1.2-4.4-2c-1.4-0.8-2.6-1.7-3.7-2.9
			c-1.1-1.1-1.9-2.4-2.4-3.9c-1.2-3.4-0.2-6.7,2.8-8.8c2.6-1.8,5.4-2.3,8.5-1.6c2,0.5,3.6,1.6,4.8,3.3c1.3,1.8,2,3.9,2.3,6.2
			c0.3,2.3,0.1,4.6-0.3,6.8c0,0.2-0.1,0.4-0.1,0.6c0,0.2,0.1,0.4,0.3,0.4c0.1,0,0.3,0,0.4,0.1c1.2,0.2,2.4,0.4,3.5,0.7
			c1.4,0.3,2.7,0.7,3.9,1.4c0.5,0.3,1,0.6,1.4,0.9c1.4,1.1,2.2,2.5,2.3,4.3c0.1,1.4,0.1,2.7-0.1,4c-0.4,2.8-0.9,5.6-1.3,8.4
			c-0.5,3.2-0.9,6.5-1.1,9.7c-0.1,2.4-0.2,4.7-0.2,7.1c0.1,4.9,0.5,9.8,1.6,14.6C248,342.3,248.3,343.5,248.7,344.8z M221.6,309.5
			c-0.3,0.1-0.7,0.3-1.1,0.5c-2.9,1.4-6,2.2-9.2,2.5c-1.9,0.2-3.7,0-5.6-0.1c-0.2,0-0.4,0-0.6,0c-0.1,0-0.2,0.1-0.2,0.2
			c0,0.2-0.1,0.4-0.1,0.6c-0.3,2.9-0.2,5.8,0,8.7c0.2,2.9,0.7,5.8,1.4,8.6c0.8,2.9,1.8,5.7,3.4,8.3c0.7,1,1.4,2.1,2.1,3.1
			c0.5,0.7,1,1.3,1.6,1.8c1.3,1.1,1.5,0.8,2.5-0.1c0.2-0.2,0.4-0.4,0.5-0.6c0.6-0.8,1.1-1.7,1.6-2.6c1-1.9,1.7-3.9,2.2-6
			c1.1-4.1,1.6-8.3,1.8-12.6c0.1-2.2,0.1-4.5,0.1-6.8c0-1.6,0-3.3-0.2-4.9C221.8,309.9,221.9,309.7,221.6,309.5z M209.7,308.8
			c4.2-0.1,7.8-1.4,10.9-3.2c0.5-0.3,0.7-0.6,0.6-1.2c-0.5-2.9-1.2-5.7-2.4-8.4c-0.8-1.9-1.9-3.7-3.3-5.4c-1.5-1.8-3.2-3.2-5.3-4.1
			c-1.8-0.8-3.7-1.2-5.7-1c-2.2,0.2-4.1,1.2-5.5,2.9c-1.8,2.1-2.9,4.6-3.2,7.4c-0.3,2.4,0.1,4.7,1.3,6.9c0.1,0.3,0.2,0.6,0.6,0.6
			c0.3,0,0.4-0.3,0.5-0.5c0.6-1.3,1.7-2.1,3-2.5c1-0.3,2-0.3,3,0c0.5,0.1,1.1,0.4,1.5,0.7c1.1,0.8,1.4,1.8,1,3.1
			c0,0.1-0.1,0.3-0.2,0.4c-0.4,1-0.7,2.1-0.9,3.3c-0.1,0.6-0.1,0.7,0.5,0.8C207.4,308.7,208.7,308.7,209.7,308.8z M168.5,286.5
			c0,0.9,0.1,1.9,0.2,2.8c0.4,2.7,1.1,5.3,2.5,7.6c1.4,2.5,3.3,4.4,5.8,5.8c1.1,0.6,2.2,1,3.5,1.3c0.4,0.1,0.5-0.1,0.5-0.5
			c-0.3-2.3-0.6-4.7-1.1-7c-0.6-3.2-1.4-6.3-2.5-9.3c-0.8-2.3-1.8-4.5-3.2-6.6c-0.5-0.7-1-1.4-1.7-2c-0.3-0.2-0.6-0.5-0.9-0.7
			c-0.2-0.1-0.4-0.1-0.5,0c-0.3,0.3-0.5,0.5-0.7,0.8c-0.5,0.7-0.9,1.5-1.1,2.3C168.7,282.9,168.5,284.7,168.5,286.5z M231.9,288.3
			c0.1-0.3,0.2-0.4,0.2-0.5c0.4-1.9,0.5-3.8,0.3-5.7c-0.2-1.4-0.6-2.8-1.3-4c-0.3-0.6-0.7-1.1-1.2-1.5c-0.7-0.6-1.4-0.8-2.3-0.5
			c-2.5,0.7-4,3.1-3.4,5.6c0.4,1.6,1.3,2.9,2.6,4C228.3,286.9,230,287.7,231.9,288.3z"/>
		<path class="st0" d="M276.8,307.9c0,0,0.1,0,0.1,0c0.1-0.3,0.2-0.6,0.3-1c1.3-4.8,2.9-9.5,5-14c0.9-1.8,1.8-3.6,2.9-5.3
			c1-1.5,2-2.9,3.3-4.1c1.2-1.2,2.6-2.1,4.2-2.5c2.5-0.7,4.9-0.3,7.2,1c2.1,1.3,3.7,3,4.7,5.3c0.7,1.7,1.1,3.4,1.4,5.2
			c0.6,4.1,0.6,8.1,0.3,12.2c-0.4,4.3-1.2,8.5-2.5,12.5c-1.6,4.7-3.8,9.1-6.8,13c-3.1,4.1-6.5,7.8-10.4,11c-1.2,1-2.4,1.9-3.8,2.6
			c-0.2,0.1-0.4,0.3-0.7,0.4c-0.7,0.3-1,0.8-0.9,1.6c0.1,0.6-0.2,1.1-0.6,1.5c-1,1-2.3,1.5-3.7,1.2c-0.9-0.1-1.5-0.6-2-1.3
			c-0.1-0.2-0.2-0.3-0.3-0.5c-1.2-2.4-2.3-4.8-3-7.4c-0.8-3.1-1.4-6.2-1.9-9.4c-0.6-3.5-1-7.1-1.3-10.6c-0.4-5-0.5-10-0.2-15
			c0.2-2.8,0.4-5.5,0.8-8.3c0.3-2.5,0.8-5,1.3-7.5c0.3-1.5,1.1-2.7,2.1-3.8c1.2-1.3,2.8-1.6,4.5-1c1.1,0.4,1.8,1.1,2,2.2
			c0.3,1.1,0.3,2.3,0.1,3.5c-0.9,3.9-1.5,7.9-1.8,11.9c-0.2,1.9-0.3,3.9-0.3,5.8C276.7,307.5,276.7,307.7,276.8,307.9z M279.3,328
			c0,1.4,0,2.7,0,4.1c0.1,1.8,0.2,3.7,0.7,5.5c0.1,0.4,0.3,0.5,0.6,0.2c1.5-1.2,2.9-2.5,4.1-4c2.8-3.1,5.2-6.6,7.2-10.3
			c2.1-3.8,3.5-7.9,4.4-12.1c1.1-5.4,1.5-10.8,1.1-16.3c-0.1-1.8-0.4-3.7-0.9-5.4c-0.3-1.2-0.9-2.4-1.5-3.5
			c-0.3-0.6-0.5-0.6-1.1-0.3c-0.8,0.4-1.5,0.9-2.2,1.6c-0.9,0.9-1.7,1.9-2.4,3c-1.5,2.1-2.7,4.4-3.7,6.8
			C281.5,307,279.6,317.4,279.3,328z"/>
		<path class="st0" d="M236.4,244.1c0.1,6.1,0.1,11.1,0,16.1c0,0.6-0.1,1.3-0.1,1.9c-0.1,1.5-0.9,2.6-2.3,3
			c-1.8,0.6-3.6,0.9-5.5,0.5c-1.8-0.4-3-1.5-3.2-3.4c-0.3-1.9-0.5-3.9-0.6-5.8c-0.4-4.9-0.5-9.9-0.5-14.9c0-1.6,0.2-1.5-1.5-1.5
			c-2.1,0-4.3,0-6.4,0c-0.2,0-0.5,0-0.7,0c-0.2,0-0.3,0.1-0.3,0.4c0,0.3,0,0.6,0,0.9c0.1,4.8,0.3,9.7,0.4,14.5
			c0,1.9,0.1,3.8-0.1,5.6c0,0.3-0.1,0.5-0.1,0.8c-0.2,1-0.8,1.8-1.8,2.2c-0.2,0.1-0.5,0.2-0.7,0.3c-1.2,0.3-2.4,0.5-3.7,0.5
			c-0.4,0-0.8-0.1-1.2-0.2c-1.2-0.4-2.1-1.2-2.4-2.5c-0.2-0.9-0.4-1.8-0.5-2.6c-0.2-1.6-0.4-3.2-0.5-4.8c-0.4-5-0.4-10-0.4-15
			c0-2.9,0-5.9,0.1-8.8c0-0.8,0.1-1.6,0.2-2.3c0.2-1.1,0.8-1.8,1.8-2.2c0.8-0.3,1.6-0.5,2.5-0.4c0.8,0.1,1.6,0.2,2.3,0.3
			c0.5,0.1,0.9,0.2,1.4,0.4c1.6,0.6,2.5,1.8,2.5,3.5c0,1.4,0,2.7,0,4.1c0,1.6-0.1,1.4,1.4,1.4c2,0,4.1,0,6.1,0c0.3,0,0.5,0,0.8,0
			c0.7,0,0.8-0.1,0.8-0.8c0-0.1,0-0.3,0-0.5c0.1-1.5,0.2-2.9,0.2-4.4c0-0.6,0.2-1.3,0.4-1.9c0.2-0.8,0.8-1.4,1.5-1.7
			c0.3-0.1,0.6-0.3,0.9-0.3c1.1-0.2,2.3-0.5,3.4-0.6c1.3-0.2,2.5,0,3.6,0.5c1.4,0.5,2.1,1.5,2.1,3c0,0.8,0,1.7,0,2.5
			C236.2,236.3,236.3,240.7,236.4,244.1z"/>
		<path class="st0" d="M277.7,176c0-4.7,0.3-9.2,0.8-13.8c0.8-6.9,2-13.7,3.3-20.4c0.9-4.3,1.9-8.6,3.1-12.9
			c0.5-1.7,1.3-3.2,2.6-4.4c0.8-0.8,1.8-1.3,2.9-1.4c0.8-0.1,1.6,0.1,2.3,0.4c0.9,0.5,1.4,1.2,1.4,2.3c0,1.4,0,2.9-0.5,4.2
			c-1.6,5.2-2.7,10.5-3.8,15.9c-0.6,3.2-1.2,6.3-1.7,9.5c-0.5,3.3-0.9,6.6-1.3,9.9c-0.5,4.8-0.5,9.5-0.4,14.3
			c0.1,2.7,0.3,5.4,0.6,8.1c0.1,1.2,0.2,2.5,0.3,3.7c0,0.5,0.1,1,0.2,1.4c0,0.3,0.2,0.4,0.5,0.3c0.6-0.1,1.2-0.3,1.7-0.5
			c0.5-0.2,1.1-0.3,1.6-0.5c0.7-0.2,1.5-0.3,2.2-0.1c0.4,0.1,0.8,0.2,1.1,0.5c0.7,0.5,0.9,1.2,0.5,2c-0.3,0.7-0.8,1.2-1.4,1.7
			c-0.4,0.3-0.9,0.6-1.5,0.8c-2.1,0.7-4.3,1.3-6.6,1.5c-0.8,0.1-1.5,0-2.2-0.2c-1.3-0.3-2.3-1-3-2.2c-0.2-0.4-0.4-0.9-0.6-1.3
			c-0.9-2.2-1.4-4.4-1.6-6.8C277.9,184,277.8,179.9,277.7,176z"/>
		<path class="st0" d="M240.1,241.3c0-3.1,0-6.2,0-9.3c0-1,0.1-2.1,0.2-3.1c0.1-1,0.3-1.9,0.9-2.7c0.4-0.5,0.9-0.9,1.5-1.1
			c2.4-0.7,4.9-1.1,7.4-1.2c2-0.1,4-0.2,6-0.2c1.2-0.1,2.2,0.2,3.3,0.7c0.4,0.2,0.8,0.5,1,0.8c0.8,0.9,0.6,2-0.5,2.5
			c-0.7,0.4-1.5,0.5-2.3,0.5c-1.4,0-2.8,0.1-4.3,0.2c-0.4,0-0.8,0.1-1.2,0.1c-0.8,0.1-0.8,0.1-0.8,0.9c0.1,1.6,0.2,3.1,0.4,4.7
			c0.1,0.8,0.1,1.6,0.2,2.4c0,0.4,0.1,0.5,0.5,0.5c0.7,0,1.3,0.1,2,0.3c0.5,0.2,1,0.4,1.4,0.8c0.9,0.8,0.7,2-0.4,2.5
			c-0.6,0.3-1.3,0.4-2,0.5c-0.2,0-0.5,0-0.7,0c-0.4,0-0.4,0.1-0.4,0.5c0,0.6,0.1,1.2,0.1,1.8c0.5,5.3,0.9,10.6,0.8,16
			c0,0.1,0,0.2,0,0.2c0,1.2,0,1.2,1.3,1.1c1.3-0.1,2.5-0.3,3.8-0.5c0.6-0.1,1.3-0.1,1.9-0.1c0.6,0,1.3,0.2,1.8,0.5
			c0.4,0.2,0.7,0.5,0.9,0.9c0.3,0.6,0.2,1.2-0.3,1.8c-0.3,0.3-0.7,0.5-1.1,0.6c-0.6,0.2-1.2,0.4-1.8,0.5c-1.9,0.3-3.8,0.6-5.8,0.8
			c-0.5,0-1,0.1-1.6,0.1c-0.9,0-1.7,0.1-2.6,0.2c-1.4,0.2-2.8,0.2-4.2,0c-0.7-0.1-1.5-0.3-2.1-0.6c-1.1-0.6-1.9-1.5-2.2-2.7
			c-0.3-1.1-0.3-2.2-0.4-3.3c-0.5-4.7-0.6-9.4-0.8-14.2C240.1,243.4,240.2,242.4,240.1,241.3C240.1,241.3,240.1,241.3,240.1,241.3z"
			/>
		<path class="st0" d="M181.2,239.5c-0.1-2.7-0.2-5.3,0-8c0-0.1,0-0.3,0-0.4c0-0.2-0.1-0.3-0.3-0.3c-0.3,0-0.5,0-0.8,0
			c-1.6,0.1-3.2,0.2-4.8,0.1c-0.6,0-1.3-0.1-1.9-0.2c-0.6-0.1-1.2-0.3-1.6-0.7c-0.7-0.7-0.7-1.6,0.1-2.2c0.3-0.3,0.7-0.5,1.1-0.6
			c0.5-0.1,1-0.2,1.5-0.3c3.3-0.3,6.5-0.6,9.8-0.8c2-0.1,4-0.2,6-0.3c1.5-0.1,3.1-0.1,4.6-0.1c0.9,0,1.9,0.1,2.8,0.3
			c0.6,0.2,1.1,0.4,1.6,0.8c0.8,0.8,0.7,1.8-0.2,2.5c-0.6,0.4-1.4,0.6-2.1,0.7c-0.9,0.1-1.7,0.2-2.6,0.2c-0.5,0-1,0-1.5,0
			c-0.7,0-0.6,0.2-0.6,0.7c0.1,0.4,0.1,0.8,0.1,1.2c0.1,2.3,0.1,4.6,0.2,6.9c0.2,3.3,0.4,6.6,0.6,9.9c0.2,2.7,0.3,5.3,0.5,8
			c0.1,1.2,0.1,2.3,0.2,3.5c0,0.4,0,0.9,0,1.4c-0.1,1.8-1.1,2.9-2.8,3.3c-1.2,0.2-2.3,0.1-3.5-0.1c0,0-0.1,0-0.1,0
			c-2.8-0.6-4.1-1.9-4.7-4.8c-0.3-1.5-0.5-3-0.6-4.6c-0.3-3.8-0.6-7.6-0.9-11.3C181.2,242.6,181.2,241,181.2,239.5z"/>
	</g>
	<path class="st52" d="M233.8,85.8c-2-4-4.6-7.6-8.1-10.5c-2.4-2.1-5.1-3.7-8-5.1c-6.5-3.2-13.4-4.9-20.7-5.3
		c-9.2-0.5-17.5,1.8-25,7.2c-3.6,2.5-6.7,5.5-9.1,9.2c-1.9,3-3.3,6.2-4.4,9.6c-3.3,11.1-2.2,21.6,3.7,31.6c1.3,2.2,2.9,4.1,4.8,5.8
		c0.4,0.4,0.9,0.7,1.4,0.9c0.5,0.3,1,0.1,1.3-0.2c0.3-0.3,0.3-0.8-0.1-1.3c-0.3-0.4-0.6-0.8-0.9-1.2c-1.2-1.4-2.2-2.9-3.1-4.4
		c0.1,0,0.2-0.1,0.2-0.1c1.9,0.4,3.8,0.2,5.6-0.5c0.9-0.3,1.7-0.2,2.4,0.2c0.5,0.2,0.9,0.5,1.3,0.9c1.2,0.9,2.5,1.8,3.7,2.8
		c1.1,0.8,2.3,1.3,3.6,1.5c1.9,0.2,3.4-0.6,4.1-2.4c0.3-0.7,0.4-1.5,0.4-2.2c0.1-1.3-0.2-2.6-0.7-3.8c-0.3-0.7-0.5-1.5-0.5-2.3
		c0-0.4,0-0.9-0.1-1.3c-0.3-2-0.1-4.1,0.4-6.1c0.1-0.5,0.2-1,0.3-1.6c0.5-2.2-0.1-4.1-1.8-5.5c-0.9-0.8-1.9-1.5-2.9-2.1
		c-1.3-0.8-2.2-1.9-2.7-3.4c-0.4-1.1-0.6-2.3-0.9-3.5c-0.2-0.9-0.3-1.8-0.6-2.6c-0.5-1.5-1.5-2.6-3-3.3c-1.4-0.6-2.8-0.9-4.3-1.1
		c-1.6-0.2-3-0.9-4.5-1.5c2.7-3.9,5.9-7,9.8-9.5c0,0.4,0,0.7,0.1,1.1c0.1,1.8,0.7,3.5,1.9,4.9c0.3,0.4,0.6,0.7,0.9,1.1
		c0.7,0.7,1.1,1.6,1.3,2.6c0.2,1.1,0.5,2.2,0.7,3.3c0.4,2.3,1.4,4.2,3,5.8c1,1,1.7,2.1,2.3,3.4c0.4,0.9,0.8,1.7,1.3,2.5
		c0.7,1.1,1.6,1.9,2.8,2.5c0.6,0.3,1.2,0.5,1.8,0.8c1.6,0.7,3.2,1.3,4.7,2.1c1.1,0.5,2.1,1.3,3.1,1.9c1,0.6,2,1.1,3.1,1.2
		c1.2,0.1,2.2-0.4,2.7-1.4c0.2-0.4,0.4-0.9,0.5-1.4c0.3-1.5,0.2-2.9-0.3-4.3c-0.5-1.2-1-2.3-1.6-3.5c-0.4-1-1-1.9-1.3-2.9
		c-0.2-0.7-0.3-1.4-0.3-2.1c0-1,0.6-1.8,1.5-2.2c0.3-0.2,0.7-0.3,1-0.4c1-0.5,1.9-1,2.9-1.5c0.4-0.2,0.8-0.5,1.2-0.8
		c0.8-0.6,1.7-0.9,2.7-0.9c0.6,0,1.2-0.1,1.8-0.2c2.1-0.4,3.8-1.5,5.1-3.3c0.7-1,1-2.1,1.2-3.2c0.1-1,0.3-2,0.4-3
		c3.3,1.5,8.5,7.4,9.9,11c-0.9,0.9-2.1,1.5-3.2,2c-1.3,0.6-2.6,1.2-3.9,1.9c-1.8,1-2.7,2.6-2.8,4.6c-0.1,2.7-0.5,5.4-1.1,8.1
		c-0.3,1.4-0.5,2.8-0.3,4.2c0.3,2,1.3,3.5,3.3,4.2c0.6,0.2,1.2,0.4,1.8,0.5c0.8,0.2,1.5,0.4,2.3,0.6c1,0.2,1.8,0.8,2.4,1.5
		c0.7,0.8,1.4,1.5,2.2,2.4c-0.3,0.7-0.7,1.4-1,2.1c-0.2,0.4-0.4,0.8-0.7,1.1c-0.6,1-1.2,1.9-1.8,2.9c-0.4,0.7-0.6,1.4-0.5,2.2
		c0.2,1.2,1.6,1.7,2.5,0.9c0.4-0.3,0.7-0.7,1-1c3-4.2,5.2-8.8,6.4-13.9C238.7,102.7,238,94,233.8,85.8z"/>
	<g>
		<path class="st53" d="M305.6,265.3c-0.8-0.9-1.8-1.6-2.9-2c-0.2-0.1-0.4-0.2-0.7-0.3c0.2-0.2,0.3-0.4,0.4-0.5
			c1.4-1.6,1.7-3.4,0.7-5.3c-0.9-1.7-2.4-3-4.1-4c-0.2-0.1-0.5-0.3-0.7-0.4c0-0.1,0-0.1,0-0.1c0-0.1,0-0.2,0-0.3
			c0.4-2.2-0.4-4.1-1.8-5.7c-1-1.1-2.3-1.4-3.7-1c-0.5,0.1-0.9,0.3-1.4,0.5c-0.5,0.3-0.9,0.2-1.3-0.1c-0.9-0.5-1.9-1-2.8-1.4
			c-2.5-0.9-5.3,0.9-5.8,3.5c-0.3,1.9,0.1,3.5,1.4,4.9c0.2,0.2,0.3,0.4,0.5,0.6c-0.6,0.2-1.2,0.4-1.8,0.7c-1.1,0.5-1.8,1.4-2,2.6
			c-0.2,1.3,0.1,2.4,0.9,3.4c0.2,0.3,0.5,0.5,0.8,0.8c-0.2,0.1-0.4,0.2-0.6,0.4c-0.6,0.5-1.3,0.9-1.9,1.5c-1,1.1-1.5,3,0.1,4.7
			c1.2,1.2,2.6,1.7,4.3,1.6c0.9-0.1,1.8-0.3,2.8-0.6c0.1,0.2,0.1,0.5,0.2,0.7c0.8,2.5,3.3,3.7,5.6,2.7c1-0.4,1.8-1,2.4-1.8
			c0.1-0.2,0.3-0.3,0.4-0.5c0.7,1,1.6,1.6,2.6,2.2c2.8,1.7,6.5,0.5,8.3-1.4C307,269.2,307.1,266.9,305.6,265.3z"/>
		<path class="st53" d="M278.2,236c0.2,0.7,0.3,1.4,0.6,2c0.4,1,1.3,1.5,2.4,1.6c1.7,0.1,3.3-1.1,3.7-2.8c0.1-0.6,0.1-1.3,0.1-1.9
			c0.9-0.4,1.7-0.8,2.4-1.5c0.7-0.7,1.1-1.5,1.3-2.4c1.2-0.1,2.2-0.5,2.9-1.5c0.7-1,0.9-2.1,0.6-3.2c-0.3-1.1-1-1.9-2-2.5
			c-1.3-0.7-2.5-0.3-3.7,0.2c-0.2-0.3-0.2-0.5-0.4-0.7c-0.4-0.4-0.8-0.9-1.2-1.1c-1-0.6-2-0.5-3,0c-0.9,0.5-1.6,1.3-2.3,2.1
			c-0.3-0.2-0.6-0.3-0.8-0.5c-1.4-0.8-2.9-0.8-4.3-0.2c-1.7,0.7-2.8,2.9-1.5,4.8c0.2,0.3,0.3,0.6,0.6,0.9c0.3,0.3,0.3,0.6,0.2,1
			c-0.7,2.7,1.2,5.1,4,5c0.2,0,0.4,0,0.6,0C278.1,235.6,278.1,235.8,278.2,236z"/>
		<path class="st53" d="M159.3,243.6c-1.9-0.3-3.5,0.2-4.9,1.5c-0.2,0.2-0.4,0.4-0.6,0.6c-0.3-0.6-0.5-1.2-0.7-1.8
			c-0.5-1.1-1.4-1.7-2.6-1.9c-1.3-0.2-2.4,0.2-3.4,1c-0.3,0.2-0.5,0.5-0.8,0.8c-0.1-0.2-0.2-0.4-0.4-0.6c-0.5-0.6-1-1.3-1.6-1.8
			c-1.1-0.9-3.1-1.4-4.7,0.2c-1.2,1.2-1.7,2.7-1.5,4.3c0.1,0.9,0.4,1.8,0.6,2.8c-0.2,0.1-0.5,0.1-0.7,0.2c-2.4,0.9-3.6,3.4-2.5,5.6
			c0.4,0.9,1.1,1.7,1.9,2.4c0.2,0.1,0.3,0.3,0.5,0.4c-1,0.7-1.6,1.7-2.2,2.7c-1.6,2.8-0.4,6.5,1.6,8.2c1.6,1.5,3.9,1.4,5.5-0.1
			c0.9-0.8,1.5-1.8,1.9-3c0.1-0.2,0.2-0.5,0.2-0.7c0.2,0.2,0.4,0.3,0.5,0.4c1.6,1.4,3.5,1.6,5.3,0.5c1.7-1,2.9-2.4,3.8-4.2
			c0.1-0.2,0.2-0.5,0.3-0.7c0.1,0,0.1-0.1,0.1,0c0.1,0,0.2,0,0.3,0c2.2,0.4,4.1-0.5,5.7-2c1.1-1,1.4-2.3,0.9-3.7
			c-0.1-0.5-0.3-0.9-0.6-1.3c-0.3-0.5-0.2-0.9,0-1.3c0.5-0.9,1-1.9,1.3-2.9C163.8,246.7,161.8,243.9,159.3,243.6z"/>
		<path class="st53" d="M138.9,223.7c0.6-0.1,1.2-0.3,1.9-0.5c0.6,0.8,1.3,1.4,2.1,1.8c0.8,0.4,1.7,0.6,2.7,0.5
			c0.5,1.1,1.2,2,2.4,2.3c1.1,0.3,2.3,0.2,3.3-0.4c1-0.6,1.5-1.5,1.7-2.6c0.3-1.4-0.4-2.5-1.4-3.5c0.2-0.2,0.4-0.4,0.6-0.6
			c0.3-0.5,0.6-1,0.7-1.5c0.2-1.1-0.1-2.1-1-2.9c-0.8-0.7-1.7-1.2-2.7-1.6c0.1-0.4,0.2-0.6,0.2-0.9c0.3-1.6-0.1-3-1.1-4.2
			c-1.1-1.4-3.6-1.8-5,0c-0.2,0.3-0.5,0.5-0.7,0.8c-0.2,0.4-0.5,0.4-0.9,0.4c-2.8,0.1-4.4,2.7-3.5,5.3c0.1,0.2,0.1,0.3,0.1,0.5
			c-0.2,0.1-0.4,0.2-0.6,0.3c-0.6,0.4-1.2,0.7-1.7,1.2c-0.8,0.7-1,1.7-0.8,2.7C135.6,222.7,137.2,223.9,138.9,223.7z"/>
	</g>
</g>
</svg>
